PathFileType	4	(X/Y/Z)	/Users/itak/Documents/Research/Walk-IL/dataset/trc/00327_00011.trc
DataRate	CameraRate	NumFrames	NumMarkers	Units	OrigDataRate	OrigDataStartFrame	OrigNumFrames
100.000000	100.000000	4	53	mm	100.000000	485	555
Frame#	Time	RPSI			LPSI			L3			STRN			T10			C7			CLAV			RBAK			LBAK			LSHO			LUPA			LAEL			LAOL			LWTS			LWPS			LFRA			LIFD			LHPS			LHTS			RSHO			RUPA			RAEL			RAOL			RWTS			RWPS			RFRA			RIFD			RHTS			RHPS			RBHD			LFHD			RFHD			LBHD			LHIP			RHIP			RASI			LASI			LKNE			LTHI			LANK			LTIP			LTOE			LMT1			LMT5			LHEE			RKNE			RTHI			RANK			RTIP			RTOE			RMT1			RMT5			RHEE			
		X1	Y1	Z1	X2	Y2	Z2	X3	Y3	Z3	X4	Y4	Z4	X5	Y5	Z5	X6	Y6	Z6	X7	Y7	Z7	X8	Y8	Z8	X9	Y9	Z9	X10	Y10	Z10	X11	Y11	Z11	X12	Y12	Z12	X13	Y13	Z13	X14	Y14	Z14	X15	Y15	Z15	X16	Y16	Z16	X17	Y17	Z17	X18	Y18	Z18	X19	Y19	Z19	X20	Y20	Z20	X21	Y21	Z21	X22	Y22	Z22	X23	Y23	Z23	X24	Y24	Z24	X25	Y25	Z25	X26	Y26	Z26	X27	Y27	Z27	X28	Y28	Z28	X29	Y29	Z29	X30	Y30	Z30	X31	Y31	Z31	X32	Y32	Z32	X33	Y33	Z33	X34	Y34	Z34	X35	Y35	Z35	X36	Y36	Z36	X37	Y37	Z37	X38	Y38	Z38	X39	Y39	Z39	X40	Y40	Z40	X41	Y41	Z41	X42	Y42	Z42	X43	Y43	Z43	X44	Y44	Z44	X45	Y45	Z45	X46	Y46	Z46	X47	Y47	Z47	X48	Y48	Z48	X49	Y49	Z49	X50	Y50	Z50	X51	Y51	Z51	X52	Y52	Z52	X53	Y53	Z53	

486	4.850000000000001	-1107.292602539062	977.41162109375	116.528678894043	-1100.428955078125	977.7050170898438	-12.95278549194336	-1119.0068359375	1033.355346679688	56.07129287719727	-897.7943725585938	1229.047119140625	47.06501770019531	-1141.646484375	1153.812866210938	46.00539016723633	-1113.9248046875	1404.403198242188	30.23482513427734	-953.9777221679688	1347.562255859375	39.01238632202148	-1160.441650390625	1264.418334960938	99.26392364501953	-1117.813110351562	1364.250732421875	-71.94248199462891	-1030.377197265625	1383.512084960938	-124.5354537963867	-1031.730712890625	1262.44580078125	-191.9796905517578	-982.4336547851562	1062.538330078125	-201.3791961669922	-1048.344360351562	1040.778198242188	-154.2494201660156	-868.48193359375	826.7939453125	-148.7388153076172	-899.0296020507812	815.9109497070312	-209.6236724853516	-953.5161743164062	961.3931274414062	-207.3080596923828	-854.3896484375	666.7969970703125	-147.5377349853516	-898.47021484375	745.2648315429688	-206.9058837890625	-849.5343627929688	749.7646484375	-165.7364196777344	-1054.764038085938	1387.001098632812	191.835205078125	-1062.213500976562	1324.03662109375	260.0047912597656	-1038.086547851562	1059.404907226562	307.5778198242188	-1089.639892578125	1042.5400390625	229.6304626464844	-917.4110107421875	836.4952392578125	264.9931030273438	-943.22119140625	823.9421997070312	335.6623840332031	-1006.495178222656	994.524169921875	316.5429992675781	-891.8416748046875	667.1708374023438	277.9426574707031	-878.0947265625	739.6373291015625	281.0953063964844	-921.20068359375	740.1987915039062	335.7748107910156	-1095.013671875	1600.403198242188	119.2187347412109	-924.9392700195312	1634.336059570312	1.316467761993408	-935.8972778320312	1632.37646484375	102.1209869384766	-1105.857666015625	1594.711791992188	-25.42373847961426	-1009.612854003906	921.1375732421875	-112.8654556274414	-1031.244506835938	929.5991821289062	230.4875946044922	-925.5344848632812	963.0593872070312	190.3141021728516	-892.087890625	951.8173828125	-49.19505310058594	-938.27490234375	462.2824096679688	-78.03517913818359	-946.6661376953125	603.7037353515625	-93.83055114746094	-1058.9013671875	49.35244369506836	-52.33685302734375	-999.2777099609375	246.679443359375	-74.44759368896484	-855.835205078125	70.77461242675781	7.609550476074219	-923.724853515625	41.22454833984375	49.4089469909668	-935.2213745117188	62.83758163452148	-63.99238967895508	-1095.55224609375	43.31641006469727	15.51375865936279	-942.7274780273438	463.7535400390625	215.8281860351562	-940.3814697265625	724.9972534179688	238.6850280761719	-1033.149536132812	56.30470275878906	194.0543365478516	-942.690673828125	344.4928894042969	200.1766662597656	-838.7609252929688	53.07694244384766	140.7952575683594	-894.558349609375	46.97000885009766	101.0014038085938	-930.0070190429688	51.12305450439453	212.467529296875	-1086.05517578125	51.58177947998047	147.78564453125	
487	4.86	-1107.260864257812	977.474609375	116.5183029174805	-1100.991333007812	977.7583618164062	-13.02389144897461	-1119.169677734375	1033.062744140625	56.07298278808594	-898.6972045898438	1229.167602539062	46.50627899169922	-1142.480102539062	1153.47705078125	45.86186218261719	-1115.22998046875	1404.103759765625	29.82858276367188	-955.0653076171875	1347.657836914062	38.47834014892578	-1161.352905273438	1264.059326171875	98.98618316650391	-1119.074096679688	1363.908447265625	-72.30836486816406	-1031.739868164062	1383.368896484375	-124.9726791381836	-1032.872802734375	1262.414306640625	-192.5096130371094	-983.6686401367188	1062.491821289062	-202.362060546875	-1049.406005859375	1040.800415039062	-154.9320373535156	-870.7021484375	825.9591674804688	-151.1081085205078	-901.4992065429688	815.7200317382812	-211.9168395996094	-955.2415161132812	961.3611450195312	-208.6545867919922	-857.44921875	666.7039184570312	-150.9131164550781	-901.5740966796875	745.0723266601562	-209.7849884033203	-852.452880859375	748.8265991210938	-168.7093353271484	-1055.876220703125	1386.944702148438	191.3766021728516	-1063.096069335938	1323.9248046875	259.5651245117188	-1038.454833984375	1059.192993164062	306.6945190429688	-1090.268432617188	1042.485595703125	228.7676696777344	-917.2489013671875	836.8577880859375	262.9987487792969	-942.7819213867188	823.9241943359375	333.6692810058594	-1006.763000488281	994.3328857421875	315.3461303710938	-890.7359619140625	667.603759765625	275.2901916503906	-877.414794921875	740.1680297851562	278.6816711425781	-920.3480834960938	740.2803955078125	333.4215087890625	-1096.699096679688	1600.203491210938	118.5907974243164	-926.7045288085938	1634.296264648438	0.5733489394187927	-937.6148681640625	1632.4326171875	101.373649597168	-1107.618774414062	1594.433227539062	-26.04075622558594	-1010.247802734375	921.1856079101562	-113.124755859375	-1030.982299804688	929.5422973632812	230.1483459472656	-925.3212280273438	962.9016723632812	189.5579071044922	-892.7017211914062	951.9320678710938	-49.98810958862305	-938.6259155273438	462.2095031738281	-78.63551330566406	-947.2446899414062	603.681396484375	-94.50877380371094	-1058.864013671875	49.36960983276367	-52.3203125	-999.4204711914062	246.6345367431641	-74.60121154785156	-855.7425537109375	70.34925842285156	7.462490081787109	-922.8460693359375	41.47119522094727	48.6428337097168	-935.119873046875	62.55776977539062	-64.13704681396484	-1095.349487304688	43.349609375	15.61476230621338	-944.1175537109375	463.4744567871094	214.9297943115234	-940.5642700195312	724.5379028320312	237.8178253173828	-1034.63037109375	56.07241058349609	193.3781280517578	-944.2683715820312	344.3034057617188	199.2937927246094	-840.6077270507812	52.0760383605957	138.4859313964844	-896.6598510742188	46.24297714233398	99.10063934326172	-931.23388671875	50.42457580566406	210.8679962158203	-1087.87158203125	51.65236282348633	147.4122314453125	
488	4.87	-1107.230712890625	977.4931030273438	116.524284362793	-1101.521240234375	977.7164916992188	-13.07216835021973	-1119.218872070312	1032.774169921875	56.13574600219727	-899.558349609375	1229.258911132812	45.98173904418945	-1143.296142578125	1153.136474609375	45.7901611328125	-1116.446899414062	1403.796630859375	29.50949287414551	-956.068603515625	1347.734619140625	37.99067687988281	-1162.148315429688	1263.697631835938	98.83023071289062	-1120.30126953125	1363.548706054688	-72.58744049072266	-1033.0732421875	1383.190795898438	-125.3468933105469	-1034.059936523438	1262.322387695312	-192.9534149169922	-984.9180908203125	1062.414184570312	-203.2677917480469	-1050.497314453125	1040.758178710938	-155.5574188232422	-872.8646240234375	825.1551513671875	-153.2895202636719	-903.8465576171875	815.528564453125	-214.0345916748047	-956.91259765625	961.2941284179688	-209.9080200195312	-860.3560180664062	666.6766967773438	-153.8888092041016	-904.5489501953125	744.887939453125	-212.4859008789062	-855.2939453125	747.9209594726562	-171.450927734375	-1056.857177734375	1386.884155273438	191.0110778808594	-1063.810424804688	1323.83935546875	259.1949157714844	-1038.626586914062	1059.00341796875	305.9066467285156	-1090.751220703125	1042.447265625	227.9822692871094	-916.9844360351562	837.1869506835938	261.0694580078125	-942.2157592773438	823.9144287109375	331.7732849121094	-1006.841125488281	994.1439819335938	314.2090759277344	-889.8008422851562	667.9276123046875	272.7797241210938	-876.8027954101562	740.55859375	276.3531799316406	-919.49169921875	740.3323974609375	331.1828308105469	-1098.286010742188	1600.003540039062	118.0212631225586	-928.3899536132812	1634.246337890625	-0.1235622391104698	-939.2515869140625	1632.4912109375	100.6771926879883	-1109.296020507812	1594.124267578125	-26.59215927124023	-1010.850769042969	921.1632690429688	-113.3676605224609	-1030.671997070312	929.4402465820312	229.8294372558594	-925.1007690429688	962.702392578125	188.8273162841797	-893.2832641601562	951.994873046875	-50.73765563964844	-938.9429931640625	462.1135559082031	-79.14551544189453	-947.8789672851562	603.6500854492188	-95.12950897216797	-1058.801879882812	49.39799499511719	-52.27996444702148	-999.5225219726562	246.5888519287109	-74.70122528076172	-855.6409301757812	69.8438720703125	7.367047786712646	-921.9381713867188	41.70544052124023	47.89929580688477	-934.981201171875	62.24767303466797	-64.23831176757812	-1095.113647460938	43.38454055786133	15.7421817779541	-945.6494140625	463.1373596191406	214.0284576416016	-940.7734985351562	724.0765380859375	236.9655609130859	-1035.954956054688	55.80336380004883	192.7069549560547	-945.9085083007812	344.0652160644531	198.4129791259766	-842.3026733398438	51.23240280151367	136.2149353027344	-898.5370483398438	45.58954620361328	97.22913360595703	-932.2969970703125	49.82393264770508	209.2841033935547	-1089.50634765625	51.59164047241211	147.0163726806641	
489	4.88	-1107.221069335938	977.437744140625	116.5199203491211	-1102.003295898438	977.5636596679688	-13.11841678619385	-1119.18896484375	1032.491577148438	56.22902297973633	-900.3773803710938	1229.312866210938	45.49248123168945	-1144.071044921875	1152.793823242188	45.77906036376953	-1117.5693359375	1403.488403320312	29.27572441101074	-956.98681640625	1347.783081054688	37.54537582397461	-1162.833740234375	1263.33642578125	98.78980255126953	-1121.490234375	1363.179321289062	-72.78887939453125	-1034.364990234375	1382.97705078125	-125.6641235351562	-1035.285278320312	1262.164184570312	-193.3114166259766	-986.2113037109375	1062.28955078125	-204.0830535888672	-1051.63720703125	1040.64453125	-156.107666015625	-874.9556274414062	824.3982543945312	-155.2875366210938	-906.089111328125	815.320556640625	-215.9710235595703	-958.5546264648438	961.17529296875	-211.0650939941406	-863.1505737304688	666.5814819335938	-156.5306701660156	-907.3828125	744.6947021484375	-214.9855041503906	-858.0477905273438	747.042236328125	-173.9481353759766	-1057.697509765625	1386.809936523438	190.7339324951172	-1064.36474609375	1323.7685546875	258.8935852050781	-1038.608154296875	1058.83251953125	305.2058715820312	-1091.087036132812	1042.403442382812	227.2823944091797	-916.622802734375	837.4717407226562	259.2004089355469	-941.5380859375	823.8904418945312	329.972412109375	-1006.727844238281	993.9561767578125	313.1293334960938	-889.0083618164062	668.1383056640625	270.4014892578125	-876.2311401367188	740.8096923828125	274.1079711914062	-918.6348266601562	740.3394775390625	329.0601501464844	-1099.77392578125	1599.81640625	117.5072250366211	-929.9962768554688	1634.187866210938	-0.7678150534629822	-940.8045654296875	1632.552368164062	100.0334014892578	-1110.881225585938	1593.789306640625	-27.08394622802734	-1011.389526367188	921.069580078125	-113.6055221557617	-1030.330810546875	929.260009765625	229.5030212402344	-924.9071655273438	962.4749755859375	188.1397552490234	-893.8158569335938	952.0157470703125	-51.43777465820312	-939.240478515625	462.0116577148438	-79.53628540039062	-948.5281982421875	603.6089477539062	-95.63507843017578	-1058.717651367188	49.43519592285156	-52.21557998657227	-999.5927124023438	246.5467834472656	-74.74491882324219	-855.5348510742188	69.28148651123047	7.331657409667969	-921.0870971679688	41.88344573974609	47.25043487548828	-934.8153686523438	61.92417907714844	-64.29106140136719	-1094.854736328125	43.41876983642578	15.89346313476562	-947.2960205078125	462.7668762207031	213.1464691162109	-941.0159301757812	723.6212158203125	236.1463317871094	-1037.052490234375	55.51741027832031	192.0876159667969	-947.5592651367188	343.8029174804688	197.5900421142578	-843.739990234375	50.55815124511719	134.1940460205078	-900.0735473632812	45.04752731323242	95.55766296386719	-933.1575317382812	49.33566284179688	207.8604583740234	-1090.861450195312	51.41945648193359	146.6064300537109	
